<svg width="18" height="18" viewBox="0 0 18 18" fill="none" xmlns="http://www.w3.org/2000/svg">
<path d="M2.86068 5.83232L5.83806 5.23701L9.2081 1.29439C9.7628 0.645439 10.7997 0.915319 10.9436 1.74609L12.8053 12.4949C12.9492 13.3257 12.0721 13.9783 11.3373 13.5872L6.87279 11.2111L3.89541 11.8064M2.86068 5.83232L1.32836 6.13871C0.784281 6.24749 0.419985 6.77887 0.514676 7.32557L1.2065 11.3198C1.30119 11.8665 1.81901 12.2215 2.36309 12.1128L3.89541 11.8064M2.86068 5.83232L3.89541 11.8064" stroke="#212121" stroke-linecap="round"/>
<path d="M2.58614 12.0966L3.6819 16.761H5.3572C5.99833 16.761 6.47541 16.1686 6.33874 15.5422L5.50864 11.7378" stroke="#212121" stroke-linecap="round"/>
<path d="M13.9782 1.83457L15.5992 0.502569" stroke="#212121" stroke-linecap="round"/>
<path d="M15.1664 5.70685L17.1202 5.01199" stroke="#212121" stroke-linecap="round"/>
<path d="M15.1703 9.80704L17.5049 10.3414" stroke="#212121" stroke-linecap="round"/>
</svg>
