<svg width="18" height="11" viewBox="0 0 18 11" fill="none" xmlns="http://www.w3.org/2000/svg">
<path d="M4.03519 0.146446C3.83993 -0.0488157 3.52335 -0.0488157 3.32809 0.146446L0.146106 3.32843C-0.0491559 3.52369 -0.0491558 3.84027 0.146106 4.03553C0.341369 4.2308 0.657951 4.2308 0.853213 4.03553L3.68164 1.20711L6.51007 4.03553C6.70533 4.2308 7.02191 4.2308 7.21717 4.03553C7.41244 3.84027 7.41244 3.52369 7.21717 3.32843L4.03519 0.146446ZM3.68164 10.5L4.18164 10.5L4.18164 0.5L3.68164 0.5L3.18164 0.5L3.18164 10.5L3.68164 10.5Z" fill="black"/>
<path d="M13.3281 10.8536C13.5233 11.0488 13.8399 11.0488 14.0352 10.8536L17.2172 7.67157C17.4124 7.47631 17.4124 7.15973 17.2172 6.96447C17.0219 6.7692 16.7053 6.7692 16.5101 6.96447L13.6816 9.79289L10.8532 6.96447C10.658 6.7692 10.3414 6.7692 10.1461 6.96447C9.95084 7.15973 9.95084 7.47631 10.1461 7.67157L13.3281 10.8536ZM13.6816 0.5L13.1816 0.5L13.1816 10.5L13.6816 10.5L14.1816 10.5L14.1816 0.5L13.6816 0.5Z" fill="black"/>
</svg>
